<svg width="61" height="61" viewBox="0 0 61 61" fill="none" xmlns="http://www.w3.org/2000/svg">
<circle cx="30.5" cy="30.5" r="30.5" fill="white"/>
<path fill-rule="evenodd" clip-rule="evenodd" d="M19.9849 18.27C19.0699 20.953 18.2669 23.654 17.5129 26.364C16.9699 23.501 16.5919 20.608 16.5549 17.649C16.5499 17.218 14.6159 17.539 14.6229 18.167C14.6749 22.41 15.4229 26.521 16.3699 30.599C15.9434 32.2325 15.5271 33.8685 15.1106 35.5057L15.1106 35.5057C14.3591 38.4591 13.6067 41.4164 12.7909 44.37C12.6819 44.764 14.5619 44.508 14.6949 44.026C15.5212 41.0353 16.2819 38.0405 17.0418 35.0491L17.0418 35.049L17.2509 34.226C17.3586 34.6545 17.4669 35.083 17.5751 35.5115C18.2766 38.2876 18.9791 41.0676 19.5239 43.883C19.6219 44.391 21.5649 43.928 21.4559 43.365C20.9083 40.5371 20.2033 37.7444 19.4991 34.9554L19.4991 34.9553C19.0922 33.3438 18.6857 31.7334 18.3099 30.118C19.3779 26.032 20.5119 21.961 21.8879 17.927C22.0119 17.566 20.1509 17.782 19.9849 18.27ZM34.3949 18.798C34.4439 17.751 32.4759 18.004 32.4319 18.926C32.4299 18.9658 32.4289 19.0054 32.428 19.0449L32.4279 19.045V19.0451C32.4269 19.0848 32.4259 19.1244 32.4239 19.164C32.4175 19.1748 32.4108 19.1856 32.4041 19.1963L32.404 19.1965C32.3707 19.2504 32.3371 19.3047 32.3229 19.368C31.5354 22.8689 30.3768 26.2485 29.2164 29.6334L29.2162 29.6339C28.8974 30.564 28.5784 31.4945 28.2669 32.428C27.7381 34.0128 27.3098 35.6231 26.8817 37.2325L26.8817 37.2326L26.8816 37.2328C26.7884 37.5833 26.6952 37.9338 26.6009 38.284C26.4886 32.9314 26.4697 27.5847 26.4507 22.2285V22.2282C26.4462 20.9571 26.4417 19.6854 26.4359 18.413C26.4309 17.371 24.4709 17.644 24.4749 18.547C24.4807 19.842 24.4851 21.1361 24.4895 22.4297V22.4299C24.5134 29.4644 24.5372 36.4819 24.7779 43.518C24.7428 43.6142 24.7312 43.7174 24.7439 43.819L24.8079 44.264C24.9309 45.12 26.7669 44.744 26.7519 43.947C26.7544 43.9415 26.7584 43.937 26.7624 43.9325C26.7664 43.928 26.7704 43.9235 26.7729 43.918C27.7237 41.494 28.4063 38.9859 29.0893 36.4766C29.5815 34.668 30.0739 32.8588 30.6669 31.08C30.8551 30.5172 31.0441 29.9554 31.233 29.3942L31.2335 29.3926C31.5672 28.4006 31.9004 27.4101 32.2279 26.418C32.1569 32.405 32.2859 38.387 32.4389 44.379C32.4649 45.391 34.0189 45.15 34.3489 44.444L34.4049 44.325C34.5169 44.086 34.4929 43.902 34.3899 43.767C34.1789 35.434 34.0009 27.132 34.3949 18.798ZM37.8419 17.708C41.0079 17.887 44.1619 18.04 47.3199 17.66C48.6719 17.497 47.8599 18.434 47.0029 18.536C45.2239 18.75 43.4489 18.814 41.6729 18.802C41.7694 21.9622 41.642 25.1806 41.5141 28.408C41.3054 33.6765 41.0958 38.969 41.8579 44.072C41.9359 44.595 39.9889 45.014 39.9259 44.59C39.1632 39.4895 39.3741 34.199 39.5841 28.9323C39.7168 25.6027 39.8492 22.2826 39.7349 19.026C39.7309 18.928 39.7989 18.842 39.8919 18.761C38.8029 18.725 37.7139 18.678 36.6209 18.616C35.6019 18.559 37.3509 17.68 37.8419 17.708Z" fill="#231F20"/>
</svg>
